<svg width="16" height="16" viewBox="0 0 16 16" fill="none" xmlns="http://www.w3.org/2000/svg">
<path fill-rule="evenodd" clip-rule="evenodd" d="M1.75278 11.8221C1.98549 11.9643 2.24287 12.0354 2.52493 12.0354H7.2213V3.823H5.60296V5.84943H2.52493C2.24287 5.84943 1.98549 5.92053 1.75278 6.06274C1.52008 6.20495 1.33321 6.39337 1.19218 6.62801C1.0582 6.86265 0.991211 7.11862 0.991211 7.39592V10.4889C0.991211 10.7662 1.0582 11.0222 1.19218 11.2568C1.33321 11.4914 1.52008 11.6799 1.75278 11.8221ZM5.60296 10.4036H2.62013V7.48124H5.60296V10.4036ZM8.35404 6.53192L9.50544 5.38052L11.8939 7.76895L14.2823 5.38052L15.4337 6.53192L13.0453 8.92034L15.4126 11.2877L14.2612 12.4391L11.8939 10.0717L9.52653 12.4391L8.37514 11.2877L10.7425 8.92034L8.35404 6.53192Z" fill="black"/>
</svg>
