<svg width="125" height="27" viewBox="0 0 125 27" fill="none" xmlns="http://www.w3.org/2000/svg">
<path fill-rule="evenodd" clip-rule="evenodd" d="M97.8615 26.2355C97.0222 26.2355 96.2622 26.0313 95.5817 25.623C94.9011 25.192 94.3453 24.6362 93.9143 23.9556C93.506 23.2751 93.3018 22.5151 93.3018 21.6758V0H97.3851V21.5396C97.3851 21.7211 97.4419 21.8799 97.5553 22.016C97.6914 22.1295 97.8388 22.1862 97.9976 22.1862H101.673V26.2355H97.8615ZM4.55974 26.2355C3.72038 26.2355 2.94908 26.0313 2.24584 25.623C1.56528 25.192 1.02084 24.6362 0.612502 23.9556C0.204167 23.2751 0 22.5151 0 21.6758V11.0591C0 10.2197 0.204167 9.45975 0.612502 8.77919C1.02084 8.09864 1.56528 7.55419 2.24584 7.14585C2.94908 6.71484 3.72038 6.49932 4.55974 6.49932H16.0271V0.034028H20.0765V26.2355H4.55974ZM4.72988 22.1862H15.3806C15.5621 22.1862 15.7095 22.1295 15.823 22.016C15.9591 21.8799 16.0271 21.7211 16.0271 21.5396V11.1952C16.0271 11.0137 15.9591 10.8662 15.823 10.7528C15.7095 10.6167 15.5621 10.5486 15.3806 10.5486H4.72988C4.54839 10.5486 4.3896 10.6167 4.25349 10.7528C4.14006 10.8662 4.08335 11.0137 4.08335 11.1952V21.5396C4.08335 21.7211 4.14006 21.8799 4.25349 22.016C4.3896 22.1295 4.54839 22.1862 4.72988 22.1862ZM28.0266 26.2355C27.1873 26.2355 26.4273 26.0313 25.7467 25.623C25.0662 25.192 24.5104 24.6362 24.0794 23.9556C23.671 23.2751 23.4669 22.5151 23.4669 21.6758V11.0591C23.4669 10.2197 23.671 9.45975 24.0794 8.77919C24.5104 8.09864 25.0662 7.55419 25.7467 7.14585C26.4273 6.71484 27.1873 6.49932 28.0266 6.49932H38.9496C39.8116 6.49932 40.5829 6.71484 41.2635 7.14585C41.944 7.55419 42.4885 8.09864 42.8968 8.77919C43.3051 9.45975 43.5093 10.2197 43.5093 11.0591V18.4091H27.5162V21.5396C27.5162 21.7211 27.5729 21.8799 27.6863 22.016C27.8225 22.1295 27.9812 22.1862 28.1627 22.1862H43.5093V26.2355H28.0266ZM27.5162 14.7H39.46V11.1952C39.46 11.0137 39.3919 10.8662 39.2558 10.7528C39.1424 10.6167 38.9949 10.5486 38.8135 10.5486H28.1627C27.9812 10.5486 27.8225 10.6167 27.6863 10.7528C27.5729 10.8662 27.5162 11.0137 27.5162 11.1952V14.7ZM72.236 25.623C72.9166 26.0313 73.6765 26.2355 74.5159 26.2355H85.4388C86.3009 26.2355 87.0722 26.0313 87.7527 25.623C88.4333 25.192 88.9777 24.6362 89.3861 23.9556C89.7944 23.2751 89.9986 22.5151 89.9986 21.6758V11.0591C89.9986 10.2197 89.7944 9.45975 89.3861 8.77919C88.9777 8.09864 88.4333 7.55419 87.7527 7.14585C87.0722 6.71484 86.3009 6.49932 85.4388 6.49932H74.5159C73.6765 6.49932 72.9166 6.71484 72.236 7.14585C71.5555 7.55419 70.9997 8.09864 70.5686 8.77919C70.1603 9.45975 69.9561 10.2197 69.9561 11.0591V21.6758C69.9561 22.5151 70.1603 23.2751 70.5686 23.9556C70.9997 24.6362 71.5555 25.192 72.236 25.623ZM85.3027 22.1862H74.652C74.4705 22.1862 74.3117 22.1295 74.1756 22.016C74.0622 21.8799 74.0055 21.7211 74.0055 21.5396V11.1952C74.0055 11.0137 74.0622 10.8662 74.1756 10.7528C74.3117 10.6167 74.4705 10.5486 74.652 10.5486H85.3027C85.4842 10.5486 85.6317 10.6167 85.7451 10.7528C85.8812 10.8662 85.9492 11.0137 85.9492 11.1952V21.5396C85.9492 21.7211 85.8812 21.8799 85.7451 22.016C85.6317 22.1295 85.4842 22.1862 85.3027 22.1862ZM106.48 25.623C107.184 26.0313 107.955 26.2355 108.794 26.2355H124.277V11.0591C124.277 10.2197 124.073 9.45975 123.665 8.77919C123.256 8.09864 122.712 7.55419 122.031 7.14585C121.351 6.71484 120.579 6.49932 119.717 6.49932H104.235V10.5486H119.581C119.763 10.5486 119.91 10.6167 120.024 10.7528C120.16 10.8662 120.228 11.0137 120.228 11.1952V14.3257H104.235V21.6758C104.235 22.5151 104.439 23.2751 104.847 23.9556C105.255 24.6362 105.8 25.192 106.48 25.623ZM120.228 22.1862H108.93C108.749 22.1862 108.59 22.1295 108.454 22.016C108.341 21.8799 108.284 21.7211 108.284 21.5396V18.0348H120.228V22.1862ZM67.4037 24.2521L59.5526 16.4009L67.4037 8.54975L64.6558 5.80184L56.8046 13.653L48.9535 5.80184L46.2056 8.54975L54.0567 16.4009L46.2056 24.2521L48.9535 27L56.8046 19.1488L64.6558 27L67.4037 24.2521Z" fill="#FFFFFA"/>
</svg>
