<svg width="79" height="79" viewBox="0 0 79 79" fill="none" xmlns="http://www.w3.org/2000/svg">
<path fill-rule="evenodd" clip-rule="evenodd" d="M78.1374 2.88514L78.7982 0.952148L76.8663 1.61595L3.82318 26.7128L1.44702 27.5292L3.73432 28.5689L36.3538 43.3959L51.1822 76.3893L52.221 78.7005L53.0406 76.3028L78.1374 2.88514ZM51.9677 73.2582L38.3061 42.861L50.554 30.6131L49.1398 29.1989L36.8941 41.4446L6.84922 27.7879L75.5842 4.17121L51.9677 73.2582ZM0.818359 51.2996L7.5608 44.5572L8.97501 45.9714L2.23257 52.7138L0.818359 51.2996ZM1.56796 76.7711L25.5411 52.798L26.9553 54.2122L2.98217 78.1853L1.56796 76.7711Z" fill="#FFFFFA"/>
</svg>
